<mxfile host="app.diagrams.net" agent="Mozilla/5.0 (Windows NT 10.0; Win64; x64) AppleWebKit/537.36 (KHTML, like Gecko) Chrome/132.0.0.0 Safari/537.36 Edg/132.0.0.0" version="26.0.11">
  <diagram name="Страница — 1" id="V5dN5y3LcQ9VdGCVBi28">
    <mxGraphModel dx="1715" dy="743" grid="0" gridSize="10" guides="1" tooltips="1" connect="1" arrows="1" fold="1" page="1" pageScale="1" pageWidth="3300" pageHeight="4681" background="none" math="0" shadow="0">
      <root>
        <mxCell id="0" />
        <mxCell id="1" parent="0" />
        <mxCell id="sM11ofvP-9TDLn3Tv2qv-1" value="Пользователь" style="rounded=0;whiteSpace=wrap;html=1;" parent="1" vertex="1">
          <mxGeometry x="60" y="120" width="200" height="40" as="geometry" />
        </mxCell>
        <mxCell id="sM11ofvP-9TDLn3Tv2qv-2" value="" style="endArrow=none;dashed=1;html=1;rounded=0;" parent="1" edge="1">
          <mxGeometry width="50" height="50" relative="1" as="geometry">
            <mxPoint x="160" y="240" as="sourcePoint" />
            <mxPoint x="160" y="160" as="targetPoint" />
          </mxGeometry>
        </mxCell>
        <mxCell id="sM11ofvP-9TDLn3Tv2qv-3" value="" style="rounded=0;whiteSpace=wrap;html=1;rotation=-90;" parent="1" vertex="1">
          <mxGeometry x="-50" y="440" width="420" height="20" as="geometry" />
        </mxCell>
        <mxCell id="sM11ofvP-9TDLn3Tv2qv-4" value="" style="endArrow=classic;html=1;rounded=0;" parent="1" source="sM11ofvP-9TDLn3Tv2qv-7" edge="1">
          <mxGeometry width="50" height="50" relative="1" as="geometry">
            <mxPoint x="-3" y="286" as="sourcePoint" />
            <mxPoint x="387" y="286" as="targetPoint" />
          </mxGeometry>
        </mxCell>
        <mxCell id="sM11ofvP-9TDLn3Tv2qv-5" value="Передача информации о выборе заказа" style="text;html=1;align=center;verticalAlign=middle;whiteSpace=wrap;rounded=0;" parent="1" vertex="1">
          <mxGeometry x="205" y="242" width="170" height="30" as="geometry" />
        </mxCell>
        <mxCell id="sM11ofvP-9TDLn3Tv2qv-8" value="" style="endArrow=classic;html=1;rounded=0;entryX=0.967;entryY=-0.064;entryDx=0;entryDy=0;entryPerimeter=0;" parent="1" edge="1" target="sM11ofvP-9TDLn3Tv2qv-7">
          <mxGeometry width="50" height="50" relative="1" as="geometry">
            <mxPoint x="170" y="280" as="sourcePoint" />
            <mxPoint x="557" y="280" as="targetPoint" />
          </mxGeometry>
        </mxCell>
        <mxCell id="sM11ofvP-9TDLn3Tv2qv-7" value="" style="rounded=0;whiteSpace=wrap;html=1;rotation=-90;" parent="1" vertex="1">
          <mxGeometry x="-119.25" y="752.25" width="1042.5" height="30" as="geometry" />
        </mxCell>
        <mxCell id="sM11ofvP-9TDLn3Tv2qv-9" value="" style="endArrow=none;dashed=1;html=1;rounded=0;exitX=1;exitY=0.5;exitDx=0;exitDy=0;entryX=0.5;entryY=1;entryDx=0;entryDy=0;" parent="1" edge="1" target="o5CKal_ypGGCemgisbKP-1" source="sM11ofvP-9TDLn3Tv2qv-7">
          <mxGeometry width="50" height="50" relative="1" as="geometry">
            <mxPoint x="415.72" y="248" as="sourcePoint" />
            <mxPoint x="415.72" y="168" as="targetPoint" />
            <Array as="points" />
          </mxGeometry>
        </mxCell>
        <mxCell id="sM11ofvP-9TDLn3Tv2qv-11" value="" style="endArrow=none;html=1;rounded=0;" parent="1" edge="1">
          <mxGeometry width="50" height="50" relative="1" as="geometry">
            <mxPoint x="307" y="326" as="sourcePoint" />
            <mxPoint x="387" y="326" as="targetPoint" />
            <Array as="points">
              <mxPoint x="347" y="326" />
            </Array>
          </mxGeometry>
        </mxCell>
        <mxCell id="sM11ofvP-9TDLn3Tv2qv-13" value="" style="endArrow=classic;html=1;rounded=0;" parent="1" edge="1">
          <mxGeometry width="50" height="50" relative="1" as="geometry">
            <mxPoint x="307" y="366" as="sourcePoint" />
            <mxPoint x="387" y="366" as="targetPoint" />
          </mxGeometry>
        </mxCell>
        <mxCell id="sM11ofvP-9TDLn3Tv2qv-14" value="Обработка данных" style="text;html=1;align=center;verticalAlign=middle;whiteSpace=wrap;rounded=0;" parent="1" vertex="1">
          <mxGeometry x="215" y="330" width="90" height="30" as="geometry" />
        </mxCell>
        <mxCell id="sM11ofvP-9TDLn3Tv2qv-15" value="" style="endArrow=classic;html=1;rounded=0;entryX=0.935;entryY=0.035;entryDx=0;entryDy=0;entryPerimeter=0;" parent="1" target="sM11ofvP-9TDLn3Tv2qv-16" edge="1">
          <mxGeometry width="50" height="50" relative="1" as="geometry">
            <mxPoint x="420" y="356" as="sourcePoint" />
            <mxPoint x="855" y="360" as="targetPoint" />
          </mxGeometry>
        </mxCell>
        <mxCell id="sM11ofvP-9TDLn3Tv2qv-16" value="" style="rounded=0;whiteSpace=wrap;html=1;rotation=-90;" parent="1" vertex="1">
          <mxGeometry x="320.47" y="621" width="641.05" height="27.45" as="geometry" />
        </mxCell>
        <mxCell id="sM11ofvP-9TDLn3Tv2qv-17" value="Фоторезистор" style="rounded=0;whiteSpace=wrap;html=1;" parent="1" vertex="1">
          <mxGeometry x="541" y="120" width="200" height="40" as="geometry" />
        </mxCell>
        <mxCell id="sM11ofvP-9TDLn3Tv2qv-18" value="" style="endArrow=none;dashed=1;html=1;rounded=0;entryX=0.5;entryY=1;entryDx=0;entryDy=0;" parent="1" edge="1" target="sM11ofvP-9TDLn3Tv2qv-17">
          <mxGeometry width="50" height="50" relative="1" as="geometry">
            <mxPoint x="642" y="313" as="sourcePoint" />
            <mxPoint x="657.0900000000001" y="153" as="targetPoint" />
            <Array as="points" />
          </mxGeometry>
        </mxCell>
        <mxCell id="sM11ofvP-9TDLn3Tv2qv-19" value="Включить" style="text;html=1;align=center;verticalAlign=middle;whiteSpace=wrap;rounded=0;" parent="1" vertex="1">
          <mxGeometry x="493.8" y="330" width="60" height="30" as="geometry" />
        </mxCell>
        <mxCell id="sM11ofvP-9TDLn3Tv2qv-20" value="" style="endArrow=classic;html=1;rounded=0;entryX=0.934;entryY=0.03;entryDx=0;entryDy=0;entryPerimeter=0;" parent="1" edge="1" target="sM11ofvP-9TDLn3Tv2qv-24">
          <mxGeometry width="50" height="50" relative="1" as="geometry">
            <mxPoint x="422" y="440" as="sourcePoint" />
            <mxPoint x="1160" y="440" as="targetPoint" />
          </mxGeometry>
        </mxCell>
        <mxCell id="sM11ofvP-9TDLn3Tv2qv-22" value="Фоторезистор" style="rounded=0;whiteSpace=wrap;html=1;" parent="1" vertex="1">
          <mxGeometry x="773.23" y="120" width="200" height="40" as="geometry" />
        </mxCell>
        <mxCell id="sM11ofvP-9TDLn3Tv2qv-24" value="" style="rounded=0;whiteSpace=wrap;html=1;rotation=-90;" parent="1" vertex="1">
          <mxGeometry x="568" y="691.18" width="610.45" height="28.12" as="geometry" />
        </mxCell>
        <mxCell id="sM11ofvP-9TDLn3Tv2qv-25" value="" style="endArrow=none;dashed=1;html=1;rounded=0;exitX=1;exitY=0.5;exitDx=0;exitDy=0;entryX=0.5;entryY=1;entryDx=0;entryDy=0;" parent="1" source="sM11ofvP-9TDLn3Tv2qv-24" target="sM11ofvP-9TDLn3Tv2qv-22" edge="1">
          <mxGeometry width="50" height="50" relative="1" as="geometry">
            <mxPoint x="864.1600000000001" y="400" as="sourcePoint" />
            <mxPoint x="869.1600000000001" y="160" as="targetPoint" />
          </mxGeometry>
        </mxCell>
        <mxCell id="sM11ofvP-9TDLn3Tv2qv-26" value="Включить" style="text;html=1;align=center;verticalAlign=middle;whiteSpace=wrap;rounded=0;" parent="1" vertex="1">
          <mxGeometry x="699.1600000000001" y="410" width="60" height="30" as="geometry" />
        </mxCell>
        <mxCell id="sM11ofvP-9TDLn3Tv2qv-30" value="Реле" style="rounded=0;whiteSpace=wrap;html=1;" parent="1" vertex="1">
          <mxGeometry x="1011.75" y="120" width="190" height="40" as="geometry" />
        </mxCell>
        <mxCell id="sM11ofvP-9TDLn3Tv2qv-31" value="" style="endArrow=none;dashed=1;html=1;rounded=0;exitX=1;exitY=0.5;exitDx=0;exitDy=0;entryX=0.5;entryY=1;entryDx=0;entryDy=0;" parent="1" source="sM11ofvP-9TDLn3Tv2qv-29" target="sM11ofvP-9TDLn3Tv2qv-30" edge="1">
          <mxGeometry width="50" height="50" relative="1" as="geometry">
            <mxPoint x="1061.75" y="210" as="sourcePoint" />
            <mxPoint x="1111.75" y="160" as="targetPoint" />
          </mxGeometry>
        </mxCell>
        <mxCell id="sM11ofvP-9TDLn3Tv2qv-32" value="Если 1=Включить" style="text;html=1;align=center;verticalAlign=middle;whiteSpace=wrap;rounded=0;" parent="1" vertex="1">
          <mxGeometry x="923.25" y="610" width="120" height="30" as="geometry" />
        </mxCell>
        <mxCell id="sM11ofvP-9TDLn3Tv2qv-34" value="Реле" style="rounded=0;whiteSpace=wrap;html=1;" parent="1" vertex="1">
          <mxGeometry x="1244.5" y="120" width="200" height="40" as="geometry" />
        </mxCell>
        <mxCell id="sM11ofvP-9TDLn3Tv2qv-35" value="" style="rounded=0;whiteSpace=wrap;html=1;" parent="1" vertex="1">
          <mxGeometry x="1327" y="580" width="30" height="497" as="geometry" />
        </mxCell>
        <mxCell id="sM11ofvP-9TDLn3Tv2qv-36" value="" style="endArrow=none;dashed=1;html=1;rounded=0;exitX=0.5;exitY=0;exitDx=0;exitDy=0;" parent="1" source="sM11ofvP-9TDLn3Tv2qv-35" edge="1">
          <mxGeometry width="50" height="50" relative="1" as="geometry">
            <mxPoint x="1297" y="210" as="sourcePoint" />
            <mxPoint x="1345" y="160" as="targetPoint" />
          </mxGeometry>
        </mxCell>
        <mxCell id="sM11ofvP-9TDLn3Tv2qv-43" value="" style="rounded=0;whiteSpace=wrap;html=1;" parent="1" vertex="1">
          <mxGeometry x="1563" y="640" width="30" height="500" as="geometry" />
        </mxCell>
        <mxCell id="sM11ofvP-9TDLn3Tv2qv-44" value="Реле" style="rounded=0;whiteSpace=wrap;html=1;" parent="1" vertex="1">
          <mxGeometry x="1488" y="120" width="180" height="40" as="geometry" />
        </mxCell>
        <mxCell id="sM11ofvP-9TDLn3Tv2qv-45" value="" style="endArrow=none;dashed=1;html=1;rounded=0;entryX=0.5;entryY=1;entryDx=0;entryDy=0;exitX=0.5;exitY=0;exitDx=0;exitDy=0;" parent="1" source="sM11ofvP-9TDLn3Tv2qv-43" target="sM11ofvP-9TDLn3Tv2qv-44" edge="1">
          <mxGeometry width="50" height="50" relative="1" as="geometry">
            <mxPoint x="1553" y="270" as="sourcePoint" />
            <mxPoint x="1603" y="220" as="targetPoint" />
          </mxGeometry>
        </mxCell>
        <mxCell id="sM11ofvP-9TDLn3Tv2qv-48" value="" style="rounded=0;whiteSpace=wrap;html=1;" parent="1" vertex="1">
          <mxGeometry x="1782" y="690" width="30" height="500" as="geometry" />
        </mxCell>
        <mxCell id="sM11ofvP-9TDLn3Tv2qv-52" value="Соленоидный&lt;div&gt;клапан 12V&lt;/div&gt;" style="rounded=0;whiteSpace=wrap;html=1;" parent="1" vertex="1">
          <mxGeometry x="1707" y="120" width="180" height="40" as="geometry" />
        </mxCell>
        <mxCell id="sM11ofvP-9TDLn3Tv2qv-53" value="" style="endArrow=none;dashed=1;html=1;rounded=0;exitX=0.5;exitY=0;exitDx=0;exitDy=0;entryX=0.5;entryY=1;entryDx=0;entryDy=0;" parent="1" source="sM11ofvP-9TDLn3Tv2qv-48" target="sM11ofvP-9TDLn3Tv2qv-52" edge="1">
          <mxGeometry width="50" height="50" relative="1" as="geometry">
            <mxPoint x="1752" y="210" as="sourcePoint" />
            <mxPoint x="1802" y="160" as="targetPoint" />
          </mxGeometry>
        </mxCell>
        <mxCell id="sM11ofvP-9TDLn3Tv2qv-55" value="" style="rounded=0;whiteSpace=wrap;html=1;" parent="1" vertex="1">
          <mxGeometry x="2023" y="755" width="30" height="460" as="geometry" />
        </mxCell>
        <mxCell id="sM11ofvP-9TDLn3Tv2qv-56" value="Соленоидный&lt;div&gt;клапан 12V&lt;/div&gt;" style="rounded=0;whiteSpace=wrap;html=1;" parent="1" vertex="1">
          <mxGeometry x="1936" y="120" width="175" height="40" as="geometry" />
        </mxCell>
        <mxCell id="sM11ofvP-9TDLn3Tv2qv-57" value="" style="endArrow=none;dashed=1;html=1;rounded=0;entryX=0.5;entryY=1;entryDx=0;entryDy=0;exitX=0.5;exitY=0;exitDx=0;exitDy=0;" parent="1" source="sM11ofvP-9TDLn3Tv2qv-55" edge="1">
          <mxGeometry width="50" height="50" relative="1" as="geometry">
            <mxPoint x="2033" y="755" as="sourcePoint" />
            <mxPoint x="2038" y="155" as="targetPoint" />
          </mxGeometry>
        </mxCell>
        <mxCell id="sM11ofvP-9TDLn3Tv2qv-63" value="" style="rounded=0;whiteSpace=wrap;html=1;rotation=-90;" parent="1" vertex="1">
          <mxGeometry x="2053" y="1046.25" width="372.5" height="30" as="geometry" />
        </mxCell>
        <mxCell id="sM11ofvP-9TDLn3Tv2qv-66" value="Соленоидный&lt;div&gt;клапан 12V&lt;/div&gt;" style="rounded=0;whiteSpace=wrap;html=1;" parent="1" vertex="1">
          <mxGeometry x="2149.25" y="120" width="180" height="40" as="geometry" />
        </mxCell>
        <mxCell id="sM11ofvP-9TDLn3Tv2qv-67" value="" style="endArrow=none;dashed=1;html=1;rounded=0;exitX=1;exitY=0.5;exitDx=0;exitDy=0;entryX=0.5;entryY=1;entryDx=0;entryDy=0;" parent="1" source="sM11ofvP-9TDLn3Tv2qv-63" target="sM11ofvP-9TDLn3Tv2qv-66" edge="1">
          <mxGeometry width="50" height="50" relative="1" as="geometry">
            <mxPoint x="2199.25" y="210" as="sourcePoint" />
            <mxPoint x="2249.25" y="160" as="targetPoint" />
          </mxGeometry>
        </mxCell>
        <mxCell id="sM11ofvP-9TDLn3Tv2qv-68" value="" style="rounded=0;whiteSpace=wrap;html=1;rotation=-90;" parent="1" vertex="1">
          <mxGeometry x="2309.07" y="1099.69" width="320.63" height="31.25" as="geometry" />
        </mxCell>
        <mxCell id="sM11ofvP-9TDLn3Tv2qv-69" value="Сервопривод" style="rounded=0;whiteSpace=wrap;html=1;" parent="1" vertex="1">
          <mxGeometry x="2375" y="120" width="190" height="40" as="geometry" />
        </mxCell>
        <mxCell id="sM11ofvP-9TDLn3Tv2qv-70" value="" style="endArrow=none;dashed=1;html=1;rounded=0;entryX=0.5;entryY=1;entryDx=0;entryDy=0;" parent="1" target="sM11ofvP-9TDLn3Tv2qv-69" edge="1">
          <mxGeometry width="50" height="50" relative="1" as="geometry">
            <mxPoint x="2470" y="950" as="sourcePoint" />
            <mxPoint x="2520" y="900" as="targetPoint" />
          </mxGeometry>
        </mxCell>
        <mxCell id="sM11ofvP-9TDLn3Tv2qv-29" value="" style="rounded=0;whiteSpace=wrap;html=1;rotation=-90;" parent="1" vertex="1">
          <mxGeometry x="864.5" y="791" width="487" height="28.75" as="geometry" />
        </mxCell>
        <mxCell id="fy--uOW-poUbjtwPTkG2-3" value="" style="endArrow=classic;html=1;rounded=0;entryX=0.777;entryY=1.112;entryDx=0;entryDy=0;entryPerimeter=0;" parent="1" edge="1" target="sM11ofvP-9TDLn3Tv2qv-7">
          <mxGeometry width="50" height="50" relative="1" as="geometry">
            <mxPoint x="626" y="478" as="sourcePoint" />
            <mxPoint x="598" y="485" as="targetPoint" />
          </mxGeometry>
        </mxCell>
        <mxCell id="fy--uOW-poUbjtwPTkG2-5" value="Снять показания" style="text;html=1;align=center;verticalAlign=middle;whiteSpace=wrap;rounded=0;" parent="1" vertex="1">
          <mxGeometry x="464" y="451" width="110" height="30" as="geometry" />
        </mxCell>
        <mxCell id="fy--uOW-poUbjtwPTkG2-6" value="" style="endArrow=classic;html=1;rounded=0;" parent="1" edge="1">
          <mxGeometry width="50" height="50" relative="1" as="geometry">
            <mxPoint x="856" y="556" as="sourcePoint" />
            <mxPoint x="419" y="559" as="targetPoint" />
          </mxGeometry>
        </mxCell>
        <mxCell id="fy--uOW-poUbjtwPTkG2-7" value="Снять показания" style="text;html=1;align=center;verticalAlign=middle;whiteSpace=wrap;rounded=0;" parent="1" vertex="1">
          <mxGeometry x="466.3" y="530" width="110" height="30" as="geometry" />
        </mxCell>
        <mxCell id="fy--uOW-poUbjtwPTkG2-8" value="" style="endArrow=none;html=1;rounded=0;" parent="1" edge="1">
          <mxGeometry width="50" height="50" relative="1" as="geometry">
            <mxPoint x="307" y="366" as="sourcePoint" />
            <mxPoint x="307" y="326" as="targetPoint" />
          </mxGeometry>
        </mxCell>
        <mxCell id="fy--uOW-poUbjtwPTkG2-10" value="" style="endArrow=none;html=1;rounded=0;" parent="1" edge="1">
          <mxGeometry width="50" height="50" relative="1" as="geometry">
            <mxPoint x="307" y="486" as="sourcePoint" />
            <mxPoint x="387" y="486" as="targetPoint" />
          </mxGeometry>
        </mxCell>
        <mxCell id="fy--uOW-poUbjtwPTkG2-11" value="" style="endArrow=none;html=1;rounded=0;" parent="1" edge="1">
          <mxGeometry width="50" height="50" relative="1" as="geometry">
            <mxPoint x="307" y="566" as="sourcePoint" />
            <mxPoint x="307" y="486" as="targetPoint" />
          </mxGeometry>
        </mxCell>
        <mxCell id="fy--uOW-poUbjtwPTkG2-12" value="" style="endArrow=classic;html=1;rounded=0;entryX=0.694;entryY=-0.161;entryDx=0;entryDy=0;entryPerimeter=0;" parent="1" target="sM11ofvP-9TDLn3Tv2qv-7" edge="1">
          <mxGeometry width="50" height="50" relative="1" as="geometry">
            <mxPoint x="307" y="566" as="sourcePoint" />
            <mxPoint x="387" y="558.5" as="targetPoint" />
          </mxGeometry>
        </mxCell>
        <mxCell id="fy--uOW-poUbjtwPTkG2-13" value="Обработка показаний" style="text;html=1;align=center;verticalAlign=middle;whiteSpace=wrap;rounded=0;" parent="1" vertex="1">
          <mxGeometry x="235" y="513" width="60" height="30" as="geometry" />
        </mxCell>
        <mxCell id="fy--uOW-poUbjtwPTkG2-14" value="" style="endArrow=classic;html=1;rounded=0;exitX=0;exitY=0;exitDx=0;exitDy=0;entryX=0.832;entryY=0.006;entryDx=0;entryDy=0;entryPerimeter=0;" parent="1" edge="1" target="sM11ofvP-9TDLn3Tv2qv-29" source="fy--uOW-poUbjtwPTkG2-16">
          <mxGeometry width="50" height="50" relative="1" as="geometry">
            <mxPoint x="590" y="640" as="sourcePoint" />
            <mxPoint x="1480" y="640" as="targetPoint" />
          </mxGeometry>
        </mxCell>
        <mxCell id="fy--uOW-poUbjtwPTkG2-15" value="" style="endArrow=classic;html=1;rounded=0;" parent="1" edge="1">
          <mxGeometry width="50" height="50" relative="1" as="geometry">
            <mxPoint x="1090" y="697" as="sourcePoint" />
            <mxPoint x="421" y="697" as="targetPoint" />
          </mxGeometry>
        </mxCell>
        <mxCell id="fy--uOW-poUbjtwPTkG2-16" value="Если 0=Остановить работу" style="text;html=1;align=center;verticalAlign=middle;whiteSpace=wrap;rounded=0;" parent="1" vertex="1">
          <mxGeometry x="419" y="643" width="155" height="30" as="geometry" />
        </mxCell>
        <mxCell id="fy--uOW-poUbjtwPTkG2-17" value="" style="endArrow=classic;html=1;rounded=0;" parent="1" edge="1">
          <mxGeometry width="50" height="50" relative="1" as="geometry">
            <mxPoint x="419" y="761" as="sourcePoint" />
            <mxPoint x="1327" y="761" as="targetPoint" />
          </mxGeometry>
        </mxCell>
        <mxCell id="fy--uOW-poUbjtwPTkG2-18" value="Если 1= Включить" style="text;html=1;align=center;verticalAlign=middle;whiteSpace=wrap;rounded=0;" parent="1" vertex="1">
          <mxGeometry x="1160" y="733" width="120" height="30" as="geometry" />
        </mxCell>
        <mxCell id="fy--uOW-poUbjtwPTkG2-20" value="" style="endArrow=classic;html=1;rounded=0;entryX=0.468;entryY=0.989;entryDx=0;entryDy=0;entryPerimeter=0;exitX=-0.059;exitY=0.46;exitDx=0;exitDy=0;exitPerimeter=0;" parent="1" edge="1" target="sM11ofvP-9TDLn3Tv2qv-7" source="sM11ofvP-9TDLn3Tv2qv-35">
          <mxGeometry width="50" height="50" relative="1" as="geometry">
            <mxPoint x="1800" y="799.57" as="sourcePoint" />
            <mxPoint x="590" y="800" as="targetPoint" />
          </mxGeometry>
        </mxCell>
        <mxCell id="fy--uOW-poUbjtwPTkG2-22" value="Если 0=Остановить работу" style="text;html=1;align=center;verticalAlign=middle;whiteSpace=wrap;rounded=0;" parent="1" vertex="1">
          <mxGeometry x="414" y="725" width="180" height="30" as="geometry" />
        </mxCell>
        <mxCell id="fy--uOW-poUbjtwPTkG2-23" value="" style="endArrow=classic;html=1;rounded=0;exitX=0.387;exitY=1.016;exitDx=0;exitDy=0;exitPerimeter=0;" parent="1" source="sM11ofvP-9TDLn3Tv2qv-7" edge="1">
          <mxGeometry width="50" height="50" relative="1" as="geometry">
            <mxPoint x="596.2399999999998" y="878.7499999999999" as="sourcePoint" />
            <mxPoint x="1560" y="885" as="targetPoint" />
          </mxGeometry>
        </mxCell>
        <mxCell id="fy--uOW-poUbjtwPTkG2-25" value="Если 1=Включить" style="text;html=1;align=center;verticalAlign=middle;whiteSpace=wrap;rounded=0;" parent="1" vertex="1">
          <mxGeometry x="1405" y="848" width="120" height="30" as="geometry" />
        </mxCell>
        <mxCell id="fy--uOW-poUbjtwPTkG2-27" value="" style="endArrow=classic;html=1;rounded=0;" parent="1" edge="1">
          <mxGeometry width="50" height="50" relative="1" as="geometry">
            <mxPoint x="1565" y="920" as="sourcePoint" />
            <mxPoint x="420" y="923" as="targetPoint" />
          </mxGeometry>
        </mxCell>
        <mxCell id="fy--uOW-poUbjtwPTkG2-28" value="Если 0=Остановить работу" style="text;html=1;align=center;verticalAlign=middle;whiteSpace=wrap;rounded=0;" parent="1" vertex="1">
          <mxGeometry x="414" y="890" width="180" height="30" as="geometry" />
        </mxCell>
        <mxCell id="fy--uOW-poUbjtwPTkG2-30" value="" style="endArrow=classic;html=1;rounded=0;" parent="1" edge="1">
          <mxGeometry width="50" height="50" relative="1" as="geometry">
            <mxPoint x="419" y="1002" as="sourcePoint" />
            <mxPoint x="1776" y="1005" as="targetPoint" />
          </mxGeometry>
        </mxCell>
        <mxCell id="fy--uOW-poUbjtwPTkG2-31" value="Открыть" style="text;html=1;align=center;verticalAlign=middle;whiteSpace=wrap;rounded=0;" parent="1" vertex="1">
          <mxGeometry x="1661" y="970" width="60" height="30" as="geometry" />
        </mxCell>
        <mxCell id="fy--uOW-poUbjtwPTkG2-32" value="" style="endArrow=classic;html=1;rounded=0;exitX=0.238;exitY=1.148;exitDx=0;exitDy=0;exitPerimeter=0;" parent="1" edge="1" source="sM11ofvP-9TDLn3Tv2qv-7">
          <mxGeometry width="50" height="50" relative="1" as="geometry">
            <mxPoint x="1830" y="1040" as="sourcePoint" />
            <mxPoint x="2022" y="1044" as="targetPoint" />
          </mxGeometry>
        </mxCell>
        <mxCell id="fy--uOW-poUbjtwPTkG2-33" value="Открыть" style="text;html=1;align=center;verticalAlign=middle;whiteSpace=wrap;rounded=0;" parent="1" vertex="1">
          <mxGeometry x="1883" y="1007" width="60" height="30" as="geometry" />
        </mxCell>
        <mxCell id="fy--uOW-poUbjtwPTkG2-34" value="" style="endArrow=classic;html=1;rounded=0;exitX=0.197;exitY=0.989;exitDx=0;exitDy=0;exitPerimeter=0;" parent="1" edge="1" source="sM11ofvP-9TDLn3Tv2qv-7">
          <mxGeometry width="50" height="50" relative="1" as="geometry">
            <mxPoint x="2150" y="1080" as="sourcePoint" />
            <mxPoint x="2220" y="1084" as="targetPoint" />
          </mxGeometry>
        </mxCell>
        <mxCell id="fy--uOW-poUbjtwPTkG2-35" value="Открыть" style="text;html=1;align=center;verticalAlign=middle;whiteSpace=wrap;rounded=0;" parent="1" vertex="1">
          <mxGeometry x="2100" y="1046.25" width="60" height="30" as="geometry" />
        </mxCell>
        <mxCell id="fy--uOW-poUbjtwPTkG2-37" value="" style="endArrow=classic;html=1;rounded=0;entryX=0.25;entryY=0;entryDx=0;entryDy=0;exitX=0.084;exitY=1;exitDx=0;exitDy=0;exitPerimeter=0;" parent="1" edge="1" target="sM11ofvP-9TDLn3Tv2qv-68" source="sM11ofvP-9TDLn3Tv2qv-7">
          <mxGeometry width="50" height="50" relative="1" as="geometry">
            <mxPoint x="590" y="1201" as="sourcePoint" />
            <mxPoint x="3366.01" y="1201.18" as="targetPoint" />
          </mxGeometry>
        </mxCell>
        <mxCell id="fy--uOW-poUbjtwPTkG2-40" value="Включить" style="text;html=1;align=center;verticalAlign=middle;whiteSpace=wrap;rounded=0;" parent="1" vertex="1">
          <mxGeometry x="2319" y="1164" width="60" height="30" as="geometry" />
        </mxCell>
        <mxCell id="fy--uOW-poUbjtwPTkG2-42" value="" style="endArrow=none;dashed=1;html=1;rounded=0;" parent="1" edge="1">
          <mxGeometry width="50" height="50" relative="1" as="geometry">
            <mxPoint x="431" y="1125" as="sourcePoint" />
            <mxPoint x="1780" y="1120" as="targetPoint" />
          </mxGeometry>
        </mxCell>
        <mxCell id="fy--uOW-poUbjtwPTkG2-44" value="" style="endArrow=none;dashed=1;html=1;rounded=0;" parent="1" edge="1">
          <mxGeometry width="50" height="50" relative="1" as="geometry">
            <mxPoint x="431" y="1235" as="sourcePoint" />
            <mxPoint x="2226" y="1230" as="targetPoint" />
          </mxGeometry>
        </mxCell>
        <mxCell id="fy--uOW-poUbjtwPTkG2-45" value="" style="endArrow=none;dashed=1;html=1;rounded=0;entryX=0.041;entryY=-0.029;entryDx=0;entryDy=0;entryPerimeter=0;" parent="1" edge="1" target="sM11ofvP-9TDLn3Tv2qv-68">
          <mxGeometry width="50" height="50" relative="1" as="geometry">
            <mxPoint x="440" y="1266" as="sourcePoint" />
            <mxPoint x="3360" y="1260" as="targetPoint" />
          </mxGeometry>
        </mxCell>
        <mxCell id="fy--uOW-poUbjtwPTkG2-47" value="" style="shape=mxgraph.arrows2.wedgeArrow;html=1;bendable=0;startWidth=7.5;fillColor=strokeColor;defaultFillColor=invert;defaultGradientColor=invert;rounded=0;" parent="1" edge="1">
          <mxGeometry width="100" height="100" relative="1" as="geometry">
            <mxPoint x="447" y="1126" as="sourcePoint" />
            <mxPoint x="417" y="1126" as="targetPoint" />
          </mxGeometry>
        </mxCell>
        <mxCell id="fy--uOW-poUbjtwPTkG2-48" value="" style="shape=mxgraph.arrows2.wedgeArrow;html=1;bendable=0;startWidth=7.5;fillColor=strokeColor;defaultFillColor=invert;defaultGradientColor=invert;rounded=0;" parent="1" edge="1">
          <mxGeometry width="100" height="100" relative="1" as="geometry">
            <mxPoint x="447" y="1165" as="sourcePoint" />
            <mxPoint x="417" y="1165" as="targetPoint" />
            <Array as="points">
              <mxPoint x="417" y="1165" />
            </Array>
          </mxGeometry>
        </mxCell>
        <mxCell id="fy--uOW-poUbjtwPTkG2-51" value="" style="shape=mxgraph.arrows2.wedgeArrow;html=1;bendable=0;startWidth=5.833333333333336;fillColor=strokeColor;defaultFillColor=invert;defaultGradientColor=invert;rounded=0;" parent="1" edge="1">
          <mxGeometry width="100" height="100" relative="1" as="geometry">
            <mxPoint x="447" y="1236" as="sourcePoint" />
            <mxPoint x="417" y="1236" as="targetPoint" />
          </mxGeometry>
        </mxCell>
        <mxCell id="fy--uOW-poUbjtwPTkG2-52" value="" style="shape=mxgraph.arrows2.wedgeArrow;html=1;bendable=0;startWidth=6.666666666666668;fillColor=strokeColor;defaultFillColor=invert;defaultGradientColor=invert;rounded=0;entryX=0.02;entryY=1.1;entryDx=0;entryDy=0;entryPerimeter=0;" parent="1" target="sM11ofvP-9TDLn3Tv2qv-7" edge="1">
          <mxGeometry width="100" height="100" relative="1" as="geometry">
            <mxPoint x="447" y="1268" as="sourcePoint" />
            <mxPoint x="627" y="1086" as="targetPoint" />
          </mxGeometry>
        </mxCell>
        <mxCell id="o5CKal_ypGGCemgisbKP-1" value="Arduino MEGA" style="rounded=0;whiteSpace=wrap;html=1;align=center;" parent="1" vertex="1">
          <mxGeometry x="302" y="120" width="200" height="40" as="geometry" />
        </mxCell>
        <mxCell id="5HLPq2EegSu9jOdbcZM2-7" value="" style="endArrow=none;dashed=1;html=1;rounded=0;" edge="1" parent="1">
          <mxGeometry width="50" height="50" relative="1" as="geometry">
            <mxPoint x="422" y="1163" as="sourcePoint" />
            <mxPoint x="2022" y="1163" as="targetPoint" />
          </mxGeometry>
        </mxCell>
      </root>
    </mxGraphModel>
  </diagram>
</mxfile>
